<svg aria-hidden="true" style="position:absolute;width:0;height:0"
  xmlns="http://www.w3.org/2000/svg" overflow="hidden">
  <defs>
    <symbol id="icon-company-6" viewBox="0 0 67 32">
      <path d="M33.724 15.224c-.315-.419-.466-.915-.43-1.414v-2.05c0-.628.142-1.106.428-1.433s.775-.489 1.469-.488c.652 0 1.115.139 1.389.417.299.355.444.789.411 1.226v.482h-1.167v-.488c.004-.16-.007-.319-.034-.478-.017-.108-.076-.208-.167-.284-.12-.081-.271-.121-.423-.111-.16-.01-.318.031-.444.117-.102.084-.169.193-.193.313-.033.167-.049.337-.046.507v2.488c-.018.24.033.48.15.699.058.074.139.132.233.169s.198.05.301.039c.149.011.298-.03.413-.113.095-.082.156-.188.174-.302.027-.165.039-.332.036-.498v-.505h1.167v.461c.033.456-.109.909-.403 1.289-.268.305-.725.457-1.396.457s-1.179-.163-1.466-.501zM38.583 15.245c-.295-.319-.442-.784-.442-1.4v-2.157c0-.609.147-1.07.442-1.383s.788-.469 1.478-.467c.686 0 1.177.156 1.471.467.295.313.444.774.444 1.383v2.157c0 .609-.15 1.076-.449 1.397s-.788.482-1.466.482c-.679 0-1.181-.163-1.478-.48zm2.022-.518c.106-.2.154-.419.14-.638v-2.641c.014-.215-.034-.43-.138-.626-.059-.075-.142-.135-.238-.172s-.203-.05-.308-.037c-.105-.013-.212 0-.308.037s-.18.096-.24.172c-.106.195-.154.41-.14.626v2.653c-.015.219.033.439.14.638.068.067.152.121.246.158s.196.056.3.056c.103 0 .206-.019.3-.056s.178-.091.246-.158v-.012zM43.38 9.901h1.256l.945 3.979.966-3.979h1.222l.123 5.743h-.904l-.097-3.992-.932 3.992h-.725l-.966-4.006-.089 4.006h-.913l.114-5.743zM49.301 9.901h1.957c1.127 0 1.691.544 1.691 1.631 0 1.041-.593 1.561-1.78 1.56h-.667v2.553h-1.208l.007-5.743zm1.672 2.455c.119.013.24.004.355-.028s.22-.084.309-.154c.139-.194.2-.422.174-.649.006-.175-.013-.35-.058-.521-.017-.057-.047-.111-.089-.158s-.093-.086-.153-.116c-.168-.069-.353-.101-.539-.092h-.469v1.716h.469zM54.691 9.901h1.297l1.331 5.743h-1.126l-.263-1.324h-1.157l-.271 1.324h-1.143l1.331-5.743zm1.109 3.754l-.452-2.411-.452 2.411h.903zM58.395 9.901h.846l1.619 3.276V9.901h1.003v5.743h-.804l-1.628-3.42v3.42h-1.036l.002-5.743zM64.209 13.455l-1.346-3.546h1.133l.821 2.277.771-2.277h1.109l-1.329 3.546v2.19h-1.16v-2.19zM35.589 18.156v.3h-.986v2.334h-.413v-2.334h-.99v-.3h2.389zM38.679 20.79h-.319c-.032.002-.064-.007-.089-.025-.024-.015-.043-.036-.053-.06l-.285-.626h-1.367l-.285.626c-.008.026-.023.05-.044.071-.025.017-.057.026-.089.025h-.319l1.208-2.634h.42l1.222 2.624zm-2-.978h1.14l-.483-1.072c-.036-.081-.066-.164-.089-.248-.017.05-.031.098-.046.14l-.044.11-.478 1.07zM40.762 20.532c.076.003.151.003.227 0 .065-.006.13-.016.193-.031.059-.013.117-.029.174-.048.053-.019.106-.042.162-.065v-.592h-.483c-.012.001-.024-.001-.035-.005s-.021-.009-.03-.016c-.008-.006-.014-.013-.018-.022s-.006-.017-.006-.026v-.202h.937v1.01c-.077.047-.157.089-.242.125-.086.037-.176.067-.268.09-.099.025-.2.043-.302.054-.117.011-.235.017-.353.017-.208.002-.415-.032-.609-.098-.181-.063-.345-.156-.483-.275-.134-.12-.24-.262-.312-.417-.076-.175-.114-.36-.111-.547-.003-.188.034-.374.109-.551.069-.156.176-.298.312-.417.138-.119.302-.212.483-.273.207-.067.426-.1.647-.098.112 0 .225.008.336.023.098.014.195.036.288.067.084.027.165.062.242.104.074.041.144.087.21.138l-.116.163c-.009.015-.023.027-.039.036s-.036.014-.055.014c-.027-.001-.053-.008-.075-.021-.036-.017-.075-.038-.118-.063-.051-.028-.106-.052-.162-.071-.072-.025-.146-.044-.222-.058-.101-.016-.204-.024-.307-.023-.159-.002-.318.023-.466.073-.134.047-.256.118-.355.209-.1.095-.177.206-.225.328-.108.285-.108.593 0 .878.053.124.135.237.242.332.099.09.219.162.353.209.154.046.316.063.478.052zM44.612 20.49h1.319v.3h-1.722v-2.634h.413l-.01 2.334zM47.304 20.79h-.413v-2.634h.413v2.634zM48.84 18.168c.025.012.046.028.063.048l1.766 1.986c-.002-.031-.002-.063 0-.094v-1.962h.36v2.645h-.208c-.031.002-.062-.003-.089-.015-.025-.013-.047-.03-.065-.05l-1.764-1.984v2.048h-.345v-2.634h.215c.023 0 .046.004.068.012zM54.07 18.156v.29h-1.464v.87h1.186v.279h-1.186v.899h1.464v.29h-1.889v-2.628h1.889zM10.782 1.888l18.343 4.497v15.757l-18.343-4.494V1.889zM9.605.545v17.867l20.694 5.074V5.621L9.605.545z"/>
      <path d="M20.696 31.781L0 26.702V8.836l20.696 5.076V31.78z"/>
      <path d="M9.948 1.686l18.104 4.44-7.699 6.649L2.247 8.333l7.702-6.647zM9.605.545L0 8.837l20.696 5.076 9.603-8.292L9.605.545zM21.861 30.776l8.438-7.287-8.438-2.071v9.358z"/>
    </symbol>
    <symbol id="icon-company-5" viewBox="0 0 32 32">
      <path d="M2.416 23.738c.124.14.19.316.186.496.006.118-.016.235-.066.344s-.126.205-.222.283c-.24.166-.538.248-.839.229H0v-3.145h1.445c.285-.017.568.056.8.209.093.072.167.162.216.264s.071.213.064.324c.008.173-.051.344-.168.481-.112.125-.267.212-.44.246.196.033.372.128.498.269zm-1.73-.474h.617c.14.009.28-.028.393-.104.046-.038.082-.086.105-.139s.032-.111.027-.168c.004-.057-.005-.114-.028-.167s-.058-.101-.103-.14c-.116-.079-.26-.117-.404-.106H.686v.825zm1.071 1.206c.05-.039.089-.089.114-.144s.036-.115.032-.175c.004-.061-.008-.121-.034-.177s-.065-.106-.116-.145c-.121-.082-.269-.122-.419-.114H.686v.865h.656c.148.008.294-.031.414-.109zM5.369 25.09l-.804-1.229h-.302v1.229h-.691v-3.145h1.309c.33-.021.656.075.911.267.183.171.293.396.311.634s-.058.475-.214.667c-.161.169-.382.282-.624.32l.856 1.257h-.752zm-1.105-1.657h.565c.393 0 .589-.159.589-.476.004-.065-.007-.13-.032-.191s-.063-.116-.113-.163c-.124-.094-.284-.14-.445-.128h-.572l.007.957zM9.148 24.457H7.77l-.243.633h-.725l1.265-3.11h.784l1.26 3.11h-.725l-.238-.633zm-.185-.476l-.503-1.327-.503 1.327h1.007zM13.878 25.09h-.686l-1.539-2.139v2.139h-.685v-3.145h.685l1.539 2.151v-2.151h.686v3.145zM17.794 24.338c-.142.237-.358.431-.621.555-.299.138-.63.206-.965.198h-1.222v-3.145h1.222c.334-.008.665.058.965.194.263.121.479.312.621.548.141.256.215.538.215.825s-.074.569-.215.825zm-.785-.076c.196-.209.304-.475.304-.751s-.108-.542-.304-.75c-.237-.189-.545-.285-.859-.267h-.476v2.036h.476c.314.018.622-.078.859-.267zM9.578 4.453s8.858 3.062 8.67 7.493v7.494s-8.851-3.063-8.666-7.494l-.003-7.493zM26.139 17.685c1.673-1.054 3.608-1.707 5.628-1.899V13.44c-2.327.821-4.302 2.311-5.628 4.245z"/>
      <path d="M25.134 18.392c1.369-2.524 3.743-4.472 6.633-5.443v-6.76S19.152 10.551 19.419 16.86v10.67s.562-.195 1.446-.561c0-.341 0-.685.04-1.031.261-2.929 1.782-5.644 4.228-7.546z"/>
      <path d="M23.934 22.356c.066-.74.214-1.472.441-2.185-1.523 1.643-2.446 3.682-2.638 5.83-.018.203-.029.406-.034.615.716-.315 1.55-.708 2.426-1.171-.224-1.016-.29-2.056-.196-3.09zM24.436 22.394c-.084.935-.032 1.876.156 2.798 3.446-1.888 7.319-4.806 7.17-8.332v-.307c-2.462.252-4.766 1.238-6.557 2.805-.419.971-.678 1.994-.768 3.036z"/>
    </symbol>
    <symbol id="icon-company-4" viewBox="0 0 65 32">
      <path d="M10.016 9.983h-.002c-1.827 0-3.308 1.316-3.308 2.94v.002c0 1.624 1.481 2.94 3.308 2.94h.002c1.827 0 3.308-1.316 3.308-2.94v-.002c0-1.624-1.481-2.94-3.308-2.94zM34.434 9.043c-.005-2.255-1.015-4.417-2.81-6.012S27.398.538 24.86.533c-2.538.004-4.972.902-6.767 2.497s-2.806 3.757-2.811 6.013v12.436s19.149-1.895 19.151-12.434v-.002zM0 25.562c.005 1.569.708 3.073 1.956 4.183s2.94 1.735 4.706 1.74c1.765-.005 3.457-.63 4.705-1.739s1.952-2.613 1.957-4.182V16.91S-.001 18.23-.001 25.562zm6.662 1.55c-.345 0-.682-.091-.969-.261s-.511-.413-.643-.696-.167-.595-.099-.896.233-.577.477-.794.555-.364.893-.424c.338-.06.689-.029 1.008.088s.591.316.783.571c.192.255.294.555.294.861.001.204-.044.406-.131.595s-.216.36-.378.505c-.162.145-.355.259-.567.338s-.439.119-.669.119v-.006zM20.128 26.258h-1.286v1.328h-.67v-3.25h2.116v.542h-1.446v.839h1.286v.54zm3.218-.223c0 .32-.057.6-.17.842s-.275.427-.487.558c-.21.131-.451.196-.723.196-.269 0-.51-.065-.721-.194s-.375-.314-.491-.554c-.116-.241-.175-.518-.176-.83v-.161c0-.32.057-.601.172-.844.116-.244.279-.431.489-.56.211-.131.452-.196.723-.196s.511.065.721.196c.211.129.374.316.489.56.116.242.174.523.174.841v.145zm-.678-.147c0-.341-.061-.6-.183-.777s-.296-.266-.522-.266c-.225 0-.398.088-.52.263-.122.174-.184.43-.185.768v.158c0 .332.061.589.183.772s.298.275.527.275c.225 0 .397-.088.518-.263.121-.177.182-.434.183-.772v-.158zm2.85.846c0-.126-.045-.223-.134-.29-.089-.068-.25-.14-.482-.214-.232-.076-.416-.15-.551-.223-.369-.199-.554-.468-.554-.806 0-.176.049-.332.147-.469.1-.138.242-.246.426-.324.186-.077.394-.116.625-.116.232 0 .439.042.621.127.181.083.322.202.422.355.101.153.152.327.152.522h-.67c0-.149-.047-.264-.141-.346-.094-.083-.225-.125-.395-.125-.164 0-.291.035-.382.105-.091.068-.136.159-.136.272 0 .106.053.194.158.266.107.071.264.138.471.201.381.115.659.257.833.426s.261.381.261.634c0 .281-.106.502-.319.663-.213.159-.499.239-.859.239-.25 0-.478-.045-.683-.136-.205-.092-.362-.218-.471-.377-.107-.159-.161-.344-.161-.554h.672c0 .359.214.538.643.538.159 0 .284-.032.373-.096.089-.065.134-.156.134-.272zm3.574-1.855h-.996v2.708h-.67v-2.708h-.982v-.542h2.647v.542zm2.339 1.299h-1.286v.871h1.509v.538h-2.179v-3.25h2.174v.542h-1.504v.775h1.286v.525zm1.82.218h-.533v1.19h-.67v-3.25h1.208c.384 0 .68.086.888.257s.312.413.312.725c0 .222-.048.407-.145.556-.095.147-.24.265-.435.353l.703 1.328v.031h-.719l-.609-1.19zm-.534-.542h.54c.168 0 .298-.042.391-.127.092-.086.138-.205.138-.355 0-.153-.044-.274-.132-.362-.086-.088-.219-.132-.4-.132h-.538v.975zm4.058.587v1.145h-.67v-3.25h1.268c.244 0 .458.045.643.134.186.089.329.216.429.382.1.164.15.35.15.56 0 .318-.109.57-.328.754-.217.183-.519.275-.904.275h-.587zm0-.542h.598c.177 0 .312-.042.404-.125.094-.083.141-.202.141-.357 0-.159-.047-.288-.141-.386s-.223-.149-.388-.152h-.614v1.02zm4.237.279h-1.286v.871h1.509v.538h-2.179v-3.25h2.174v.542h-1.504v.775h1.286v.525zm3.107-1.299h-.995v2.708h-.67v-2.708h-.982v-.542h2.647v.542zm2.339 1.299h-1.286v.871h1.509v.538h-2.178v-3.25h2.174v.542h-1.504v.775h1.286v.525zm1.819.218h-.533v1.19h-.67v-3.25h1.208c.384 0 .68.086.888.257s.313.413.313.725c0 .222-.048.407-.145.556-.095.147-.24.265-.435.353l.703 1.328v.031h-.719l-.609-1.19zm-.533-.542h.54c.168 0 .298-.042.391-.127.092-.086.138-.205.138-.355 0-.153-.044-.274-.132-.362-.086-.088-.219-.132-.4-.132h-.538v.975zm3.935.88c0-.126-.045-.223-.134-.29-.089-.068-.25-.14-.482-.214-.232-.076-.416-.15-.551-.223-.369-.199-.554-.468-.554-.806 0-.176.049-.332.147-.469.1-.138.242-.246.426-.324.186-.077.394-.116.625-.116.232 0 .439.042.621.127.182.083.322.202.422.355.101.153.152.327.152.522h-.67c0-.149-.047-.264-.141-.346-.094-.083-.225-.125-.395-.125-.164 0-.291.035-.382.105-.091.068-.136.159-.136.272 0 .106.053.194.158.266.107.071.264.138.471.201.381.115.658.257.833.426s.261.381.261.634c0 .281-.106.502-.319.663-.213.159-.499.239-.859.239-.25 0-.478-.045-.683-.136-.205-.092-.362-.218-.471-.377-.107-.159-.161-.344-.161-.554h.672c0 .359.214.538.643.538.159 0 .283-.032.373-.096.089-.065.134-.156.134-.272z"/>
    </symbol>
    <symbol id="icon-company-3" viewBox="0 0 32 32">
      <path d="M5.267 30.294c.011 0 .022.003.033.007s.02.01.027.017l.155.148c-.12.12-.269.216-.436.281-.196.071-.406.106-.619.101-.199.004-.397-.029-.582-.094-.166-.06-.316-.151-.438-.266-.125-.119-.221-.259-.283-.411-.068-.17-.101-.348-.099-.527-.003-.181.033-.36.107-.529.068-.153.17-.293.301-.411.132-.116.291-.207.465-.268.191-.064.394-.096.599-.094.19-.004.379.025.556.086.154.058.295.138.417.238l-.13.158c-.009.011-.02.021-.033.029-.015.009-.034.013-.052.012-.02-.001-.04-.007-.056-.017l-.07-.042-.097-.054c-.042-.02-.085-.037-.13-.052-.058-.018-.117-.032-.176-.042-.076-.012-.153-.018-.231-.017-.147-.002-.294.022-.43.071-.127.045-.242.113-.337.199-.097.092-.171.2-.219.317-.055.134-.082.276-.079.418-.002.145.025.288.079.425.047.116.12.223.215.315.089.086.199.152.322.195.127.046.262.068.399.067.079.001.158-.003.237-.013.128-.014.25-.052.359-.113.054-.031.106-.066.153-.104.02-.017.046-.026.074-.027zM9.745 29.549c.002.179-.033.356-.105.524-.063.152-.163.291-.292.407s-.286.207-.458.267c-.38.126-.799.126-1.179 0-.172-.061-.327-.152-.456-.268-.129-.118-.23-.258-.295-.411-.14-.339-.14-.71 0-1.05.066-.153.166-.293.295-.413.13-.112.285-.2.456-.258.379-.128.8-.128 1.179 0 .172.061.328.152.458.268.128.117.227.255.293.406.072.169.107.347.105.527zm-.407 0c.003-.143-.022-.285-.074-.421-.043-.116-.114-.224-.207-.315-.091-.087-.203-.154-.328-.199-.276-.092-.581-.092-.857 0-.125.044-.237.112-.328.199-.095.091-.166.198-.209.315-.099.274-.099.568 0 .842.044.117.115.224.209.315.091.086.203.153.328.197.276.09.581.09.857 0 .125-.044.237-.111.328-.197.093-.092.164-.199.207-.315.052-.136.077-.278.074-.421zM12.801 29.991l.041.094c.015-.034.029-.064.045-.094.015-.032.032-.063.05-.093l.991-1.565c.019-.027.037-.044.056-.049.026-.007.054-.01.081-.008h.293v2.545h-.347V28.95v-.079c-.002-.029-.002-.058 0-.088l-.997 1.587c-.013.024-.033.044-.058.058s-.055.021-.085.021h-.056c-.03 0-.06-.007-.085-.021s-.046-.034-.058-.058l-1.026-1.597v2.043h-.335v-2.54h.293c.028-.001.055.001.081.008.024.01.043.028.054.049l1.012 1.567c.02.029.037.059.05.091zM16.529 29.864v.953h-.388v-2.542h.865c.163-.003.326.016.483.056.125.031.242.085.341.158.086.069.153.154.194.249.046.104.068.214.066.325.002.111-.023.222-.072.325-.047.098-.118.185-.209.254-.099.076-.216.134-.343.168-.151.042-.309.062-.467.059l-.469-.007zm0-.272h.469c.102.001.203-.012.3-.039.08-.023.154-.061.217-.11.058-.047.103-.104.132-.168.032-.068.048-.141.047-.214.004-.071-.009-.141-.039-.207s-.076-.125-.136-.174c-.148-.1-.334-.149-.522-.136h-.469v1.048zM21.741 30.821h-.306c-.031.001-.061-.007-.085-.024-.022-.016-.039-.036-.05-.059l-.264-.615h-1.324l-.273.615c-.01.022-.027.042-.049.057-.025.017-.056.026-.087.025h-.306l1.163-2.546h.403l1.179 2.546zm-1.92-.945h1.093l-.461-1.036c-.035-.078-.064-.158-.087-.239l-.045.133c-.014.04-.029.078-.043.108l-.458 1.034zM23.416 28.288c.023.011.043.027.058.045l1.697 1.919v-.089-1.887h.347v2.545h-.194c-.028.001-.055-.004-.079-.015-.024-.012-.045-.028-.062-.047l-1.695-1.917c.002.029.002.058 0 .088v1.891h-.347v-2.545h.206c.024-.001.048.003.07.012zM28.375 29.809v1.011h-.388v-1.011l-1.072-1.533h.347c.03-.002.059.006.083.022.021.016.039.036.052.057l.671.989c.027.042.05.081.07.118s.035.072.049.108l.05-.11c.019-.04.041-.079.066-.116l.661-.996c.014-.02.031-.038.05-.054.023-.017.053-.027.083-.025h.351l-1.074 1.54zM12.609 24.004c.169.019.339.034.512.047 2.616-1.017 4.829-2.681 6.363-4.785s2.319-4.553 2.259-7.043L18.86 9.718c.586 2.651.312 5.39-.792 7.913s-2.994 4.729-5.459 6.372z"/>
      <path d="M11.579 23.888l.078.013c2.634-1.637 4.642-3.923 5.765-6.562s1.308-5.51.533-8.242l-4.106-3.568c1.661 2.933 2.33 6.215 1.928 9.464s-1.857 6.334-4.196 8.893zM25.506 15.165c-.698 2.735-2.392 5.202-4.832 7.035-.712.538-1.481 1.017-2.296 1.432 1.986-.507 3.812-1.404 5.337-2.621s2.707-2.723 3.456-4.4l-1.665-1.445z"/>
      <path d="M24.853 14.763l-2.371-2.06c-.045 2.349-.814 4.644-2.226 6.648s-3.416 3.642-5.803 4.745h.012c.532 0 1.064-.028 1.592-.083 2.231-.791 4.202-2.05 5.737-3.664s2.586-3.533 3.06-5.586zM11.923 4.026L9.094 1.565c-2.529.849-4.704 2.342-6.24 4.282S.492 10.086.484 12.442c.009 2.603 1.018 5.128 2.865 7.177s4.429 3.504 7.335 4.135c2.594-2.746 4.113-6.14 4.336-9.688s-.862-7.065-3.097-10.04zM31.388 14.384c-.01-3.088-1.427-6.047-3.94-8.23s-5.919-3.414-9.473-3.423c-1.642-.001-3.271.262-4.803.777l17.32 15.048c.593-1.33.897-2.744.896-4.171z"/>
    </symbol>
    <symbol id="icon-company-2" viewBox="0 0 32 32">
      <path d="M14.224 1.806h-.084c-.129-.008-.258-.011-.388-.014h-.28c-.244 0-.494.006-.741.019-.019-.001-.037-.001-.056 0-2.243.127-4.44.688-6.471 1.651l-.266.128v13.625l.623-.211c.546-.188 1.129-.357 1.731-.513 1.629-.418 3.301-.64 4.982-.662v1.79c-.223.002-.439.008-.655.019h-.051c-1.294.071-2.577.268-3.833.588-1.59.398-3.124.996-4.566 1.779V2.53c1.497-.873 3.11-1.529 4.79-1.948C10.434.201 11.951.006 13.474 0h.263c.314.008.621.022.909.044.759.053 1.511.173 2.249.358v1.762c-.717-.167-1.445-.277-2.179-.329-.015-.001-.03-.003-.045-.004-.152-.013-.304-.026-.446-.026zm3.101 1.801c.391.03.796.044 1.205.044 1.601-.006 3.195-.21 4.747-.609 1.589-.4 3.123-.998 4.564-1.781v17.163c-1.498.873-3.111 1.529-4.792 1.948-1.475.379-2.992.574-4.515.581-1.154.009-2.304-.126-3.425-.404V3.274c.265.061.537.117.814.164.455.077.934.133 1.401.167zm8.735.133l-.623.21c-.573.192-1.15.365-1.731.518-1.691.434-3.428.657-5.173.663-.406 0-.78-.011-1.141-.034l-.497-.033v14.017l.427.038c.395.034.803.052 1.214.052 1.374-.006 2.743-.183 4.074-.527 1.096-.275 2.162-.658 3.184-1.144l.266-.128V3.742zM5.377 25.977c-.09-.093-.197-.166-.317-.214s-.247-.071-.376-.066c-.137-.002-.273.024-.4.075-.117.046-.222.116-.311.205s-.156.196-.201.313c-.049.123-.073.254-.072.387v2.335c-.006.165.026.328.092.479.055.12.135.226.234.313.093.079.203.135.321.166.114.032.231.048.349.049.13.001.259-.027.377-.081.117-.051.222-.124.311-.216.087-.091.156-.197.204-.313.05-.118.075-.244.075-.372v-.261h-.61v.208c.002.071-.01.142-.036.208-.02.05-.05.095-.089.131-.038.031-.081.053-.128.067-.041.014-.084.021-.128.022-.054.006-.11-.002-.16-.024s-.094-.057-.126-.101c-.058-.094-.086-.203-.081-.313v-2.177c-.004-.121.022-.241.075-.349.032-.049.077-.089.129-.114s.112-.034.17-.027c.053-.002.105.009.152.032s.089.057.12.099c.068.09.104.2.101.313v.202h.604v-.238c.001-.14-.024-.278-.075-.408-.045-.122-.114-.234-.204-.329zM9.002 25.95c-.195-.164-.44-.255-.694-.257-.124 0-.248.023-.364.066-.119.042-.228.107-.322.191-.101.091-.182.202-.237.327-.061.143-.092.297-.089.452v2.239c-.004.158.026.314.089.459.055.12.136.227.237.313.093.087.203.154.322.197.117.043.24.065.364.066s.248-.023.364-.066c.121-.044.233-.111.33-.197.097-.087.176-.194.23-.313.063-.145.093-.301.089-.459v-2.239c.003-.155-.027-.31-.089-.452-.054-.123-.133-.235-.23-.327zm-.284 3.019c.005.06-.003.12-.024.176s-.054.107-.097.148c-.081.068-.182.105-.287.105s-.207-.037-.287-.105c-.043-.041-.076-.092-.097-.148s-.029-.116-.024-.176V26.73c-.005-.06.003-.12.024-.176s.054-.107.097-.148c.081-.068.182-.105.287-.105s.207.037.287.105c.043.041.076.092.097.148s.029.116.024.176v2.239zM13.764 29.969V25.73h-.587l-.771 2.244h-.011l-.777-2.244h-.581v4.239h.606V27.39h.011l.593 1.823h.302l.598-1.823h.011v2.579h.606zM17.205 26.027c-.093-.105-.211-.184-.343-.232-.142-.046-.29-.068-.439-.066h-.9v4.239h.604v-1.656h.311c.189.009.376-.031.545-.116.137-.076.252-.188.332-.324.07-.113.117-.238.139-.369.024-.16.035-.321.033-.482.006-.204-.014-.407-.059-.606-.04-.147-.117-.281-.223-.39zm-.311 1.292c-.003.077-.022.152-.056.221-.035.065-.089.117-.156.149-.089.04-.187.058-.285.053h-.276v-1.441h.311c.094-.005.187.014.272.053.062.036.112.091.142.157.033.074.051.155.053.236v.282c0 .099.006.2 0 .291h-.006zM20.066 25.73h-.495l-.934 4.239h.604l.177-.911h.823l.177.911h.604l-.957-4.239zm-.557 2.751l.297-1.537h.011l.296 1.537h-.604zM23.969 28.284h-.011l-.912-2.554h-.581v4.239h.604V27.42h.012l.923 2.549h.568V25.73h-.604v2.554zM27.66 25.73l-.486 1.685h-.012l-.486-1.685h-.64l.83 2.447v1.792h.604v-1.792l.83-2.447h-.64zM3.692 31.166h.291v.817h.198v-.817h.29v-.167h-.778v.167zM6.14 30.998l-.381.984h.21l.081-.224h.392l.084.224h.215l-.391-.984h-.21zm-.032.595l.134-.365.134.365h-.268zM8.559 31.62h.227v.127c-.066.053-.149.082-.233.083-.04.002-.079-.005-.116-.021s-.068-.041-.093-.072c-.052-.075-.078-.165-.073-.257 0-.219.095-.329.283-.329.05-.005.099.008.14.037s.07.071.082.12l.195-.038c-.042-.192-.181-.289-.417-.289-.127-.003-.25.042-.344.127-.05.049-.088.108-.112.174s-.034.135-.029.205c-.006.135.039.267.126.369.048.05.107.088.171.113s.134.035.203.031c.154.004.304-.052.417-.157v-.388h-.427v.166zM11.029 30.998h-.199v.984h.69v-.167h-.49v-.817zM13.118 30.998h-.199v.984h.199v-.984zM15.161 31.656l-.403-.657h-.193v.984h.185v-.643l.395.643h.198v-.984h-.182v.657zM17.007 31.549h.49v-.167h-.49v-.216h.528v-.167h-.727v.984h.747v-.167h-.548v-.266zM21.484 31.387h-.388v-.388h-.198v.984h.198v-.43h.388v.43h.198v-.984h-.198v.388zM23.342 31.549h.492v-.167h-.492v-.216h.529v-.167h-.727v.984h.746v-.167h-.548v-.266zM25.86 31.549c.171-.027.258-.117.258-.274.005-.042-.001-.084-.018-.123s-.044-.072-.078-.096c-.089-.045-.189-.065-.288-.058h-.417v.984h.198v-.412h.039c.042-.003.084.005.123.022.029.018.053.043.07.072l.215.313h.237l-.12-.192c-.053-.095-.128-.176-.218-.236zm-.199-.136h-.146v-.247h.156c.068-.005.136.002.201.023.014.013.026.029.033.046s.011.037.01.056c-.001.019-.006.038-.015.055s-.022.032-.037.043c-.065.02-.133.028-.201.023zM27.76 31.549h.49v-.167h-.49v-.216h.529v-.167h-.729v.984h.747v-.167h-.548v-.266z"/>
    </symbol>
    <symbol id="icon-company-1" viewBox="0 0 32 32">
      <path d="M6.128 0l4.771 4.517-8.856-.005v21.915h23.149v-8.379l4.766 4.512V.001H6.128zm18.854 17.517L11.454 4.71h13.528v12.807zm-4.2 5.704H5.706V8.482h1.066v13.741h14.01v.998zM9.266 29.344l-.557 1.147-.557-1.147h-.467l.813 1.529v.891h.422v-.891l.811-1.529h-.465zm.699 2.42l.196-.563h.938l.198.563h.439l-.916-2.42h-.377l-.914 2.42h.437zm.665-1.906l.351 1.004h-.701l.351-1.004zm2.218.946c-.061.093-.091.196-.091.307 0 .204.072.37.214.497.144.126.336.189.575.189s.445-.065.618-.194l.136.161h.469l-.356-.421c.14-.191.209-.435.209-.733h-.351c0 .163-.034.311-.101.444l-.467-.552.165-.12c.116-.084.2-.168.251-.253.051-.085.076-.178.076-.279 0-.153-.056-.281-.17-.384-.112-.104-.256-.156-.432-.156-.195 0-.35.055-.465.166-.115.11-.173.259-.173.449 0 .078.018.158.055.241.038.083.104.184.198.303-.18.129-.3.24-.361.334zm1.092.535c-.119.091-.246.136-.382.136-.121 0-.217-.035-.289-.105s-.108-.161-.108-.273c0-.13.067-.245.2-.346l.052-.037.529.623zm-.434-1.072c-.114-.141-.171-.258-.171-.351 0-.081.023-.148.07-.201s.109-.08.188-.08c.073 0 .133.023.181.068.048.044.072.098.072.161 0 .095-.034.173-.103.234l-.052.042-.184.126zm3.939 1.314c.166-.145.262-.347.286-.605h-.419c-.022.173-.075.296-.158.371s-.207.111-.372.111c-.181 0-.318-.069-.412-.206-.093-.137-.14-.337-.14-.598v-.214c.002-.258.052-.454.15-.587.099-.134.239-.201.422-.201.157 0 .276.039.357.116.082.076.133.202.153.376h.419c-.027-.265-.121-.47-.284-.615s-.378-.218-.645-.218c-.198 0-.373.047-.525.141-.151.094-.267.228-.347.402s-.121.375-.121.603v.226c.003.223.045.418.125.587s.193.299.339.391c.147.091.317.136.51.136.276 0 .497-.072.663-.216zm2.472-.339c.082-.18.123-.388.123-.625v-.135c-.001-.236-.043-.443-.126-.62-.083-.178-.201-.315-.354-.409-.152-.095-.326-.143-.524-.143s-.372.048-.525.145c-.152.095-.27.233-.354.414-.083.181-.125.389-.125.625v.136c.001.232.043.436.126.613.084.177.203.314.356.411.154.095.329.143.525.143.198 0 .373-.048.525-.143.153-.096.27-.234.352-.412zm-.45-1.368c.102.143.153.349.153.617v.126c0 .273-.05.48-.151.622-.1.142-.243.213-.429.213-.184 0-.328-.073-.432-.218-.103-.145-.155-.351-.155-.617v-.14c.002-.26.054-.462.156-.603.103-.143.245-.214.427-.214.186 0 .33.072.43.214z"/>
    </symbol>
    <symbol id="icon-astronaut" viewBox="0 0 32 32">
      <path fill="var(--color2, #2196f3)" d="M31.974 4.524c-.063-.193-.229-.333-.43-.363l-1.91-.278-.855-1.731c-.179-.365-.777-.365-.956 0l-.855 1.731-1.91.278c-.201.029-.367.17-.431.363-.062.193-.011.405.135.547l1.383 1.348-.326 1.903c-.034.2.048.402.212.522.166.121.382.135.562.04l1.709-.899 1.709.899c.078.041.164.061.249.061.11 0 .221-.034.314-.102.164-.119.246-.322.212-.522l-.326-1.903 1.383-1.348c.145-.142.197-.354.135-.547zm-2.463 1.327c-.125.122-.183.299-.153.472l.191 1.114-1-.526c-.078-.041-.163-.061-.249-.061s-.17.02-.249.061l-1.001.526.191-1.114c.03-.173-.028-.349-.153-.472l-.81-.789 1.119-.163c.174-.025.324-.134.402-.292l.5-1.013.5 1.013c.078.157.228.267.402.292l1.119.163-.809.789zM26.134 20.522h-1.067v1.067h1.067v-1.067zM26.134 22.656h-1.067v1.067h1.067v-1.067zM27.2 21.589h-1.067v1.067H27.2v-1.067zM25.067 21.589H24v1.067h1.067v-1.067zM22.4 26.389h-1.067v1.067H22.4v-1.067zM22.4 28.522h-1.067v1.067H22.4v-1.067zM23.467 27.456H22.4v1.067h1.067v-1.067zM21.333 27.456h-1.067v1.067h1.067v-1.067zM16 24.256h-1.067v1.067H16v-1.067zM16 26.389h-1.067v1.067H16v-1.067zM17.067 25.322H16v1.067h1.067v-1.067zM14.933 25.322h-1.067v1.067h1.067v-1.067zM5.867 6.122H4.8v1.067h1.067V6.122zM5.867 8.255H4.8v1.067h1.067V8.255z"/>
      <path fill="var(--color2, #2196f3)" d="M6.933 7.189H5.866v1.067h1.067V7.189zM4.8 7.189H3.733v1.067H4.8V7.189z"/>
      <path fill="var(--color3, #212121)" d="M24.715 14.159c-.287-.388-.709-.637-1.188-.705-.481-.068-.956.058-1.34.352l-1.252.96-1.898 1.417-1.358-.541c2.421-1.086 4.114-3.508 4.114-6.32 0-3.823-3.123-6.933-6.961-6.933s-6.961 3.11-6.961 6.933c0 1.386.414 2.674 1.12 3.758l-2.764-.024h-.005c-.009 0-.015.004-.023.005-.053.002-.105.013-.155.031-.013.005-.026.008-.038.013-.006.003-.013.003-.019.006l-3.233 1.596c-.001 0-.001 0-.001.001l-1.893.911c-.021.009-.042.021-.063.035-.755.502-1.012 1.489-.598 2.295.22.429.595.745 1.056.889.178.055.359.083.539.083.29 0 .577-.071.839-.211l1.388-.738 2.264-1.169 1.357-.008L2.2 22.211c-.001.001-.001.001-.002.001L.859 23.545c-.316.315-.49.732-.49 1.178s.174.863.49 1.179c.325.323.752.485 1.179.485s.854-.162 1.18-.485l1.314-1.309 1.741-1.3.901.897-1.762 1.754c0 .001-.001.001-.002.001l-1.339 1.333c-.316.315-.49.732-.49 1.178s.174.863.49 1.179c.325.323.753.485 1.18.485s.855-.162 1.18-.485l3.482-3.467c.001-.001.001-.001.001-.002l1.01-1-.004-.004c.006-.006.015-.009.022-.015l5.166-5.658 3.471.494c.025.004.05.005.075.005.065 0 .127-.015.187-.038.018-.006.033-.015.05-.023.019-.01.039-.015.058-.027l3.213-2.133c.012-.008.018-.021.029-.029.013-.01.029-.014.041-.026l1.271-1.191c.662-.62.753-1.635.212-2.362zM2.13 17.77c-.173.093-.37.111-.558.052-.187-.058-.338-.186-.427-.358-.161-.314-.068-.695.214-.902l1.314-.632.449 1.312-.992.528zm3.498-1.828l-1.548.8-.439-1.283 2.027-1.001-.04 1.484zm15.099-6.62c0 .918-.219 1.785-.599 2.559l-4.181-1.899c-.044-.573-.341-1.075-.788-1.388l1.464-4.86c2.378.756 4.105 2.974 4.105 5.588zm-11.789 0c0-3.235 2.644-5.867 5.894-5.867.253 0 .5.021.745.052l-1.432 4.754c-.019-.001-.037-.006-.057-.006-1.033 0-1.873.837-1.873 1.867s.84 1.867 1.873 1.867c.694 0 1.294-.383 1.618-.945l3.862 1.755c-1.075 1.446-2.795 2.39-4.737 2.39-3.25 0-5.894-2.632-5.894-5.867zm5.956.8c0 .441-.362.8-.806.8s-.806-.359-.806-.8c0-.441.362-.8.806-.8s.806.359.806.8zM2.465 25.146c-.236.234-.619.234-.854.001-.114-.114-.176-.263-.176-.423s.062-.309.176-.421l.962-.958.851.848-.959.955zm3.214 3.734c-.236.234-.619.235-.855.001-.114-.114-.176-.263-.176-.423s.062-.309.176-.421l.963-.959.852.848-.96.955zm3.481-3.469c-.001 0-.001 0-.002.001l-1.765 1.76-.852-.848 1.763-1.755s.001-.001.002-.001c.04-.04.065-.088.09-.135.007-.014.02-.026.026-.04.017-.041.019-.085.026-.129.003-.025.014-.047.014-.073 0-.036-.013-.07-.02-.106-.006-.032-.006-.065-.019-.095-.02-.05-.055-.094-.091-.138-.01-.012-.014-.027-.025-.038h-.001c-.001 0-.001-.002-.001-.002l-1.607-1.6c-.017-.017-.039-.024-.058-.038-.028-.022-.055-.042-.087-.058-.03-.015-.061-.024-.093-.033-.034-.01-.067-.017-.103-.02-.033-.002-.063.001-.095.005-.036.004-.069.009-.104.02-.034.011-.063.027-.094.045-.02.011-.042.015-.061.029L4.23 23.486l-.901-.897 2.399-2.386 4.361 4.289-.928.919zm6.819-7.017c-.015-.002-.03.004-.045.003-.039-.002-.076.001-.115.007-.03.005-.059.011-.088.021-.034.012-.065.028-.097.047-.03.018-.057.037-.083.061-.013.011-.028.017-.04.029l-4.698 5.146-4.328-4.257 2.833-2.818c.209-.208.21-.546.002-.755-.105-.105-.243-.157-.381-.156v-.001l-2.219.013.028-1.607 3.104.027c1.265 1.294 3.029 2.101 4.981 2.101.437 0 .864-.045 1.279-.123.04.032.079.065.13.085l2.41.96.331 1.644-3.003-.427zm4.041.178l-.313-1.558 1.446-1.08.947 1.257-2.08 1.381zm3.754-2.831l-.838.785-.931-1.236.831-.637c.155-.119.351-.168.543-.143.193.027.364.128.48.284.217.292.18.699-.085.947z"/>
      <path fill="var(--color3, #212121)" d="M13.602 18.544l-2.143-2.133c-.207-.207-.545-.207-.753 0l-2.142 2.133c-.1.101-.157.236-.157.378s.056.278.157.378l2.142 2.133c.104.103.241.155.377.155s.273-.052.376-.155l2.143-2.133c.1-.1.157-.236.157-.378s-.057-.278-.157-.378zm-2.519 1.759l-1.387-1.381 1.387-1.381 1.387 1.381-1.387 1.381zM17.164 5.071l-.258 1.036c.071.018 1.738.452 1.738 2.149h1.067c0-2.017-1.666-2.965-2.547-3.185zM19.711 9.322h-1.067v1.067h1.067V9.322z"/>
    </symbol>
    <symbol id="icon-linkedin" viewBox="0 0 32 32">
      <path d="M31.992 32v-.001H32V20.263c0-5.741-1.236-10.164-7.948-10.164-3.227 0-5.392 1.771-6.276 3.449h-.093v-2.913h-6.364v21.364h6.627V21.42c0-2.785.528-5.479 3.977-5.479 3.399 0 3.449 3.179 3.449 5.657v10.401h6.62zM.528 10.636h6.635V32H.528V10.636zM3.843 0C1.722 0 0 1.721 0 3.843s1.721 3.879 3.843 3.879c2.121 0 3.843-1.757 3.843-3.879C7.685 1.722 5.963 0 3.843 0z"/>
    </symbol>
    <symbol id="icon-facebook" viewBox="0 0 32 32">
      <path d="M21.329 5.313h2.921V.225C23.746.156 22.013 0 19.994 0c-4.212 0-7.097 2.649-7.097 7.519V12H8.249v5.688h4.648V32h5.699V17.689h4.46l.708-5.688h-5.169V8.082c.001-1.644.444-2.769 2.735-2.769z"/>
    </symbol>
    <symbol id="icon-twitter" viewBox="0 0 32 32">
      <path d="M32 6.078c-1.19.522-2.458.868-3.78 1.036 1.36-.812 2.398-2.088 2.886-3.626-1.268.756-2.668 1.29-4.16 1.588C25.742 3.794 24.026 3 22.154 3c-3.632 0-6.556 2.948-6.556 6.562 0 .52.044 1.02.152 1.496-5.454-.266-10.28-2.88-13.522-6.862-.566.982-.898 2.106-.898 3.316 0 2.272 1.17 4.286 2.914 5.452-1.054-.02-2.088-.326-2.964-.808v.072c0 3.188 2.274 5.836 5.256 6.446-.534.146-1.116.216-1.72.216-.42 0-.844-.024-1.242-.112.85 2.598 3.262 4.508 6.13 4.57-2.232 1.746-5.066 2.798-8.134 2.798-.538 0-1.054-.024-1.57-.09C2.906 27.93 6.35 29 10.064 29c12.072 0 18.672-10 18.672-18.668 0-.29-.01-.57-.024-.848C30.014 8.56 31.108 7.406 32 6.078z"/>
    </symbol>
    <symbol id="icon-instagram" viewBox="0 0 32 32">
      <path d="M31.969 9.408c-.075-1.7-.35-2.869-.744-3.882-.406-1.075-1.032-2.038-1.851-2.838-.8-.813-1.769-1.444-2.832-1.844C25.523.45 24.36.175 22.66.1 20.947.019 20.403 0 16.059 0s-4.888.019-6.595.094c-1.7.075-2.869.35-3.882.744-1.075.406-2.038 1.031-2.838 1.85C1.931 3.488 1.3 4.457.9 5.52.506 6.539.231 7.702.156 9.402c-.081 1.713-.1 2.257-.1 6.601s.019 4.888.094 6.595c.075 1.7.35 2.869.744 3.882.406 1.075 1.038 2.038 1.85 2.838.8.813 1.769 1.444 2.832 1.844 1.019.394 2.182.669 3.882.744 1.706.075 2.25.094 6.595.094s4.888-.019 6.595-.094c1.7-.075 2.869-.35 3.882-.744 2.151-.832 3.851-2.532 4.682-4.682.394-1.019.669-2.182.744-3.882.075-1.707.094-2.251.094-6.595s-.006-4.888-.081-6.595zm-2.882 13.065c-.069 1.563-.331 2.407-.55 2.969-.538 1.394-1.644 2.5-3.038 3.038-.563.219-1.413.481-2.969.55-1.688.075-2.194.094-6.464.094s-4.782-.019-6.464-.094c-1.563-.069-2.407-.331-2.969-.55-.694-.256-1.325-.663-1.838-1.194-.531-.519-.938-1.144-1.194-1.838-.219-.563-.481-1.413-.55-2.969-.075-1.688-.094-2.194-.094-6.464s.019-4.782.094-6.464c.069-1.563.331-2.407.55-2.969.256-.694.663-1.325 1.2-1.838.519-.531 1.144-.938 1.838-1.194.563-.219 1.413-.481 2.969-.55 1.688-.075 2.194-.094 6.464-.094 4.276 0 4.782.019 6.464.094 1.563.069 2.407.331 2.969.55.694.256 1.325.662 1.838 1.194.531.519.938 1.144 1.194 1.838.219.563.481 1.413.55 2.969.075 1.688.094 2.194.094 6.464s-.019 4.77-.094 6.458z"/>
      <path d="M16.059 7.783c-4.538 0-8.22 3.682-8.22 8.22s3.682 8.22 8.22 8.22c4.539 0 8.22-3.682 8.22-8.22s-3.682-8.22-8.22-8.22zm0 13.552c-2.944 0-5.332-2.388-5.332-5.332s2.388-5.332 5.332-5.332 5.332 2.388 5.332 5.332-2.388 5.332-5.332 5.332zM26.524 7.458c0 1.06-.859 1.919-1.919 1.919s-1.919-.859-1.919-1.919.859-1.919 1.919-1.919 1.919.859 1.919 1.919z"/>
    </symbol>
    <symbol id="icon-diagram" viewBox="0 0 32 32">
      <path fill="var(--color2, #2196f3)" d="M14.926 14.965h1.066v4.798h-1.066v-4.797zM19.19 17.097h1.066v2.665H19.19v-2.665zM10.661 18.696h1.066v1.066h-1.066v-1.066zM7.463 18.163h1.066v1.599H7.463v-1.599z"/>
      <path fill="var(--color3, #212121)" d="M1.599 28.291h25.587c.883 0 1.599-.716 1.599-1.599V24.56c0-.883-.716-1.599-1.599-1.599h-.533V9.668L29.681 6.8c.703.346 1.553.136 2.013-.499s.396-1.508-.152-2.068-1.42-.644-2.065-.198c-.644.446-.873 1.292-.542 2.002L26.654 8.2V6.97c0-.883-.716-1.599-1.599-1.599H3.733c-.883 0-1.599.716-1.599 1.599v15.992h-.533c-.883 0-1.599.716-1.599 1.599v2.132c0 .883.716 1.599 1.599 1.599zM30.384 4.837c.294 0 .533.239.533.533s-.239.533-.533.533c-.294 0-.533-.239-.533-.533s.239-.533.533-.533zM3.198 6.969c0-.294.239-.533.533-.533h21.322c.294 0 .533.239.533.533v2.239l-1.066 1.013V8.035c0-.294-.239-.533-.533-.533H4.797c-.294 0-.533.239-.533.533v13.326c0 .294.239.533.533.533h19.19c.294 0 .533-.239.533-.533v-9.674l1.066-1.01v12.284H3.198V6.969zm4.798 6.93c-.721-.002-1.354.478-1.546 1.174s.105 1.433.725 1.801c.62.368 1.41.276 1.928-.226l1.853.93c.215.108.476.057.636-.123l3.939-4.431 3.872 2.901c.208.156.498.139.686-.039l3.365-3.188v8.131H5.33V8.569h18.124v2.66l-3.771 3.572-3.904-2.927c-.222-.166-.534-.135-.718.072l-3.993 4.493-1.493-.746c.011-.064.018-.129.02-.193 0-.883-.716-1.599-1.599-1.599zm.533 1.599c0 .294-.239.533-.533.533s-.533-.239-.533-.533c0-.294.239-.533.533-.533s.533.239.533.533zm3.198 8.529h5.331v.533c0 .294-.239.533-.533.533h-4.264c-.294 0-.533-.239-.533-.533v-.533zm-10.661.533c0-.294.239-.533.533-.533h9.062v.533c0 .883.716 1.599 1.599 1.599h4.264c.883 0 1.599-.716 1.599-1.599v-.533h9.062c.294 0 .533.239.533.533v2.132c0 .294-.239.533-.533.533H1.598c-.294 0-.533-.239-.533-.533V24.56z"/>
    </symbol>
    <symbol id="icon-clock" viewBox="0 0 32 32">
      <path fill="var(--color3, #212121)" d="M31.297 15.301C31.295 6.849 24.442-.002 15.989 0S.686 6.855.688 15.308c.001 6.658 4.307 12.551 10.649 14.576.061.019.124.029.187.029.121 0 .239-.032.342-.094.135-.08.236-.207.283-.356l3.865-12.25c1.057-.005 1.909-.866 1.903-1.923s-.866-1.909-1.923-1.903c-.284.001-.565.067-.82.191l-5.106-5.107c-.253-.245-.657-.238-.902.016-.239.247-.239.639 0 .886l5.103 5.109c-.392.799-.168 1.764.536 2.309l-3.683 11.673C3.844 25.783.118 17.71 2.799 10.432S13.553-.572 20.831 2.109s11.004 10.754 8.323 18.032c-1.31 3.556-4.001 6.431-7.462 7.973l-.398-1.874c-.073-.344-.411-.565-.756-.492-.109.023-.209.074-.292.148l-3.837 3.426c-.263.234-.287.637-.052.9.076.085.174.149.283.184l4.899 1.563c.335.108.694-.077.802-.412.034-.106.04-.219.017-.328l-.391-1.839c5.664-2.388 9.342-7.942 9.329-14.089zm-15.305-.637c.352 0 .638.286.638.638s-.286.638-.638.638c-.352 0-.638-.285-.638-.638s.285-.638.638-.638zm2.101 14.864l2.184-1.948.603 2.84-2.787-.892z"/>
      <path fill="var(--color2, #2196f3)" d="M15.354 3.185V4.46c0 .352.285.638.638.638s.638-.285.638-.638V3.185c0-.352-.286-.638-.638-.638s-.638.286-.638.638zM3.876 14.664c-.352 0-.638.286-.638.638s.285.638.638.638h1.275c.352 0 .638-.285.638-.638s-.285-.638-.638-.638H3.876zM28.108 15.939c.352 0 .638-.285.638-.638s-.285-.638-.638-.638h-1.275c-.352 0-.638.286-.638.638s.286.638.638.638h1.275z"/>
    </symbol>
    <symbol id="icon-antenna" viewBox="0 0 32 32">
      <path fill="var(--color3, #212121)" d="M30.773 22.098l-8.443-8.505.937-4.615c.242.094.499.144.758.146h.006c1.192.014 2.17-.941 2.184-2.133s-.941-2.17-2.133-2.184c-1.192-.014-2.17.941-2.184 2.133-.003.255.039.509.125.749l-4.96.605L8.972.161C8.873.06 8.737.002 8.595.001c-.14.001-.274.056-.373.155L6.709 1.66c-.208.208-.208.546 0 .754l.814.826C4.37 9.038 5.394 16.218 10.042 20.903c.043.041.092.074.146.098-.034.18-.051.364-.052.547v6.187h-6.4c-1.472.002-2.665 1.195-2.667 2.667v1.067c0 .295.239.533.533.533h24.533c.295 0 .533-.239.533-.533v-1.067c-.002-1.472-1.195-2.665-2.667-2.667h-6.4v-2.742c1.003.21 2.024.317 3.049.32 2.458-.003 4.877-.615 7.04-1.783l.818.823c.099.101.235.159.377.16.14-.001.274-.056.373-.155l1.513-1.504c.208-.208.208-.546 0-.754zM23.28 6.233c.418-.415 1.093-.414 1.508.004s.414 1.093-.004 1.508c-.2.199-.47.31-.752.31h-.003c-.589-.003-1.064-.483-1.061-1.072.002-.282.115-.552.314-.751h-.002zm-1.256 3.505l-.598 2.946-1.175-1.182 1.774-1.763zm-.605-.902l-1.92 1.909-1.485-1.493 3.405-.415zM24.004 28.8c.884 0 1.6.716 1.6 1.6v.533H2.137V30.4c0-.884.716-1.6 1.6-1.6h20.267zm-7.467-2.133v1.067h-5.333v-1.067h5.333zM11.204 25.6v-4.053c0-1.294 1.196-2.347 2.667-2.347s2.667 1.053 2.667 2.347V25.6h-5.333zm6.4-1.696v-2.357c0-1.882-1.675-3.413-3.733-3.413-1.331-.02-2.576.657-3.281 1.786C6.532 15.646 5.619 9.275 8.311 4.033l18.602 18.708c-2.872 1.461-6.165 1.873-9.309 1.163zm11.289-.684L7.836 2.039l.755-.752 7.935 7.98c.004 0 .006.007.01.01l13.115 13.191-.757.752z"/>
      <path fill="var(--color2, #2196f3)" d="M13.876 20.267h-.005c-.884-.001-1.601.714-1.602 1.598s.714 1.601 1.598 1.602h.005c.884.001 1.601-.714 1.602-1.598s-.714-1.601-1.598-1.602zm.373 1.978c-.1.1-.236.156-.378.155-.295-.002-.532-.242-.531-.536.001-.141.057-.276.157-.375s.233-.154.373-.155c.295.002.532.241.53.536-.001.141-.057.276-.157.375h.005z"/>
    </symbol>
    <symbol id="icon-mail" viewBox="0 0 32 32">
      <path d="M29 4H3C1.346 4 0 5.346 0 7v18c0 1.654 1.346 3 3 3h26c1.654 0 3-1.346 3-3V7c0-1.654-1.346-3-3-3zm0 2c.136 0 .265.028.383.077L16 17.676 2.617 6.077C2.735 6.028 2.864 6 3 6h26zm0 20H3c-.552 0-1-.448-1-1V8.19l13.345 11.565c.188.163.422.244.655.244s.467-.081.655-.244L30 8.19V25c0 .552-.448 1-1 1z"/>
    </symbol>
    <symbol id="icon-smartphone" viewBox="0 0 32 32">
      <path d="M23 0H9C7.346 0 6 1.346 6 3v26c0 1.654 1.346 3 3 3h14c1.654 0 3-1.346 3-3V3c0-1.654-1.346-3-3-3zM9 2h14c.552 0 1 .448 1 1v21H8V3c0-.552.448-1 1-1zm14 28H9c-.552 0-1-.448-1-1v-3h16v3c0 .552-.448 1-1 1z"/>
      <path d="M10.707 27.478c.391.365.391.956 0 1.321s-1.024.365-1.414 0c-.391-.365-.391-.956 0-1.321s1.024-.365 1.414 0z"/>
    </symbol>
    <symbol id="icon-close" viewBox="0 0 32 32">
      <path d="M32 3.223L28.777 0 16 12.777 3.223 0 0 3.223 12.777 16 0 28.777 3.223 32 16 19.223 28.777 32 32 28.777 19.223 16 32 3.223z"/>
    </symbol>
    <symbol id="icon-modal-phone" viewBox="0 0 32 32">
      <path d="M24.882 19.773l-3.268-.373c-.785-.09-1.557.18-2.11.733L17.137 22.5c-3.641-1.853-6.626-4.825-8.478-8.478l2.38-2.38c.553-.553.823-1.325.733-2.11l-.373-3.242c-.154-1.299-1.248-2.277-2.56-2.277H6.613c-1.454 0-2.663 1.209-2.573 2.663.682 10.987 9.469 19.761 20.443 20.443 1.454.09 2.663-1.119 2.663-2.573V22.32c.013-1.3-.965-2.393-2.264-2.547z"/>
    </symbol>
    <symbol id="icon-modal-email" viewBox="0 0 32 32">
      <path d="M26.667 5.333H5.334c-1.467 0-2.653 1.2-2.653 2.667l-.013 16c0 1.467 1.2 2.667 2.667 2.667h21.333c1.467 0 2.667-1.2 2.667-2.667V8c0-1.467-1.2-2.667-2.667-2.667zM26.133 11l-9.427 5.893c-.427.267-.987.267-1.413 0L5.866 11c-.333-.213-.533-.573-.533-.96 0-.893.973-1.427 1.733-.96l8.933 5.587 8.933-5.587c.76-.467 1.733.067 1.733.96 0 .387-.2.747-.533.96z"/>
    </symbol>
    <symbol id="icon-person" viewBox="0 0 32 32">
      <path d="M16 16c2.947 0 5.333-2.387 5.333-5.333S18.946 5.334 16 5.334c-2.947 0-5.333 2.387-5.333 5.333S13.054 16 16 16zm0 2.667c-3.56 0-10.667 1.787-10.667 5.333v1.333c0 .733.6 1.333 1.333 1.333h18.667c.733 0 1.333-.6 1.333-1.333V24c0-3.547-7.107-5.333-10.667-5.333z"/>
    </symbol>
    <symbol id="icon-check" viewBox="0 0 42 32">
      <path stroke-width=".64" d="M6.263 15.205l-.22-.21-3.307 3.132 11.651 11.114L38.864 5.89l-3.285-3.134-21.192 20.197-8.124-7.75z"/>
    </symbol>
    <symbol id="icon-send" viewBox="0 0 32 32">
      <path d="M32 0L0 18l10.227 3.788L26 7 14.002 23.186l.01.004-.012-.004V32l5.735-6.691L27 28l5-28z"/>
    </symbol>
  </defs>
</svg>